<?xml version="1.0" encoding="iso-8859-1"?>
<!-- Generator: Adobe Illustrator 19.0.0, SVG Export Plug-In . SVG Version: 6.00 Build 0)  -->
<svg version="1.1" id="Capa_1" xmlns="http://www.w3.org/2000/svg" xmlns:xlink="http://www.w3.org/1999/xlink" x="0px" y="0px"
	 viewBox="0 0 512 512" style="enable-background:new 0 0 512 512;" xml:space="preserve">
<path style="fill:#1DE8F1;" d="M291.353,431c-12.299-6.899-20.8-21.601-20.8-37.8v-50.6c0-8.399-6.199-15-14.6-15h-60
	c-8.401,0-15,6.601-15,15v50.6c0,16.199-8.101,30.901-20.4,37.8c-24.6,12.9-39.6,38.399-39.6,66c0,8.399,6.599,15,15,15h180
	c8.401,0,14.6-6.601,14.6-15C330.553,469.399,315.953,443.899,291.353,431z"/>
<path style="fill:#FEDB41;" d="M324.652,70.499C310.553,28.2,270.653,0,225.953,0c-44.399,0-84.3,28.2-99,70.199
	c-1.5,4.501-0.901,9.6,1.5,13.5c2.701,3.9,7.2,6.301,11.7,6.601c39.899,2.098,70.8,34.799,70.8,74.7c0,8.399,6.599,15,15,15
	s15-6.601,15-15c0-39.6,30.901-72.601,70.499-74.7C321.353,89.7,327.954,79.799,324.652,70.499z"/>
<path style="fill:#994C10;" d="M368.98,111.973c-5.859-5.859-5.859-15.352,0-21.211l86.367-86.367
	c5.859-5.859,15.352-5.859,21.211,0s5.859,15.352,0,21.211l-86.367,86.367C384.332,117.832,374.84,117.832,368.98,111.973z"/>
<path style="fill:#CAE8F9;" d="M420.052,180l-36.899-30h-97.2c-8.401,0-15,6.599-15,15v60c0,8.399-6.599,15-15,15
	c-8.401,0-15-6.601-15-15v-60c0-8.401-6.599-15-15-15h-60c-8.401,0-15,6.599-15,15v30c0,8.399-6.599,15-15,15s-15-6.601-15-15v-30
	c0-8.401-6.599-15-15-15H52.852l-20.999,30h-0.3v0.3c0.599,6.299,1.199,12.599,2.399,18.6C50.154,290.4,130.253,360,225.953,360
	c64.799,0,122.401-31.8,157.8-80.7c20.4-28.2,33.6-62.1,36.599-98.701L420.052,180z"/>
<path style="fill:#1BD9DE;" d="M330.553,497c0,8.399-6.199,15-14.6,15h-90V327.599h30c8.401,0,14.6,6.601,14.6,15v50.6
	c0,16.199,8.501,30.901,20.8,37.8C315.953,443.899,330.553,469.399,330.553,497z"/>
<path style="fill:#FCBF29;" d="M225.953,180V0c44.7,0,84.6,28.2,98.699,70.499c3.301,9.3-3.3,19.2-13.2,19.801
	c-39.598,2.098-70.499,35.099-70.499,74.7C240.953,173.399,234.354,180,225.953,180z"/>
<path style="fill:#A4D9F5;" d="M420.353,180.599c-2.999,36.601-16.199,70.501-36.599,98.701c-35.4,48.9-93.001,80.7-157.8,80.7V150
	c8.401,0,15,6.599,15,15v60c0,8.399,6.599,15,15,15s15-6.601,15-15v-60c0-8.401,6.599-15,15-15h97.2l36.899,30L420.353,180.599z"/>
<path style="fill:#FF4C5B;" d="M420.353,180h-119.8v45c0,24.899-19.699,45-44.6,45c-11.7,0-22.2-4.501-30-11.7
	c-9.3-8.101-15-20.099-15-33.3v-45h-30.4v15c0,24.899-19.699,45-44.6,45s-45-20.101-45-45v-15H31.554
	c0-2.401-0.901-15.901-0.3-18.001C32.453,105.599,78.952,60,135.953,60c39,0,71.7,20.099,90,51.299
	c19.2-31.8,53.401-51.299,90-51.299c27.9,0,54.3,10.8,74.099,30.899c19.501,19.2,30,44.401,30.601,71.1
	C421.253,164.099,420.353,177.599,420.353,180z"/>
<path style="fill:#FC1939;" d="M420.353,180h-119.8v45c0,24.899-19.699,45-44.6,45c-11.7,0-22.2-4.501-30-11.7V111.299
	c19.2-31.8,53.401-51.299,90-51.299c27.9,0,54.3,10.8,74.099,30.899c19.501,19.2,30,44.401,30.601,71.1
	C421.253,164.099,420.353,177.599,420.353,180z"/>
<g>
</g>
<g>
</g>
<g>
</g>
<g>
</g>
<g>
</g>
<g>
</g>
<g>
</g>
<g>
</g>
<g>
</g>
<g>
</g>
<g>
</g>
<g>
</g>
<g>
</g>
<g>
</g>
<g>
</g>
</svg>
